<svg xmlns="http://www.w3.org/2000/svg" viewBox="-40786 -40786 81572 81572">
<circle cx="0.000000000000000" cy="0.000000000000000" r="1.00000000000000" fill="rgb(255,255,255)" />
<circle cx="9436.38870423471" cy="0.000000000000000" r="4717.69435211736" fill="rgb(255,25,179)" />
<circle cx="7054.26206013690" cy="6267.60070236782" r="106.700515462672" fill="rgb(255,13,13)" />
<circle cx="2571.31658424632" cy="9079.30409232934" r="3262.58792984955" fill="rgb(136,48,230)" />
<circle cx="-2790.10068326249" cy="9014.47557846083" r="178.544112196398" fill="rgb(255,13,13)" />
<circle cx="-6671.43787286390" cy="6673.63083230753" r="2414.35705727218" fill="rgb(80,230,155)" />
<circle cx="-9097.98873842957" cy="2504.40266187712" r="476.117632523728" fill="rgb(23,92,230)" />
<circle cx="-9236.67425835466" cy="-1931.13449103291" r="2019.99603960008" fill="rgb(255,128,0)" />
<circle cx="-7190.19483380590" cy="-6111.18073937594" r="696.964848467984" fill="rgb(23,92,230)" />
<circle cx="-2189.60071415542" cy="-9178.83873319379" r="3262.58792984955" fill="rgb(136,48,230)" />
<circle cx="5221.11237086055" cy="-7860.37005415492" r="2414.35705727218" fill="rgb(80,230,155)" />
<circle cx="23053.5664992773" cy="0.000000000000000" r="4181.78909080790" fill="rgb(71,204,138)" />
<circle cx="19964.9742362081" cy="11526.7832496387" r="798.473543706991" fill="rgb(209,10,10)" />
<circle cx="11526.7832496387" cy="19964.9742362081" r="4039.99207920016" fill="rgb(23,230,212)" />
<circle cx="1.41162382111353e-12" cy="23053.5664992773" r="1382.99674620008" fill="rgb(209,10,10)" />
<circle cx="-11526.7832496387" cy="19964.9742362081" r="3498.73577167525" fill="rgb(230,115,0)" />
<circle cx="-19964.9742362081" cy="11526.7832496387" r="1596.94708741398" fill="rgb(209,10,10)" />
<circle cx="-23053.5664992773" cy="1.30610877731170e-11" r="3414.41649480552" fill="rgb(153,204,102)" />
<circle cx="-19964.9742362081" cy="-11526.7832496387" r="3193.89417482796" fill="rgb(20,82,204)" />
<circle cx="-11526.7832496387" cy="-19964.9742362081" r="4181.78909080790" fill="rgb(71,204,138)" />
<circle cx="-4.23487146334059e-12" cy="-23053.5664992773" r="4039.99207920016" fill="rgb(23,230,212)" />
<circle cx="11526.7832496387" cy="-19964.9742362081" r="3414.41649480552" fill="rgb(153,204,102)" />
<circle cx="19964.9742362081" cy="-11526.7832496387" r="3193.89417482796" fill="rgb(20,82,204)" />
<circle cx="36269.0525077375" cy="0.000000000000000" r="4516.84845882613" fill="rgb(18,71,178)" />
<circle cx="-18134.5262538687" cy="31409.9208428924" r="3911.70551038802" fill="rgb(168,8,8)" />
<circle cx="-18134.5262538688" cy="-31409.9208428924" r="4516.84845882613" fill="rgb(18,71,178)" /></svg>
