<svg xmlns="http://www.w3.org/2000/svg" viewBox="0 0 130 130">
<circle cx="59.8" cy="66.5" r="2.2" fill="#0000ff" fill-opacity="0.35"/>
<circle cx="61.5" cy="80.3" r="2.2" fill="#0000ff" fill-opacity="0.36"/>
<circle cx="45.9" cy="55.4" r="2.2" fill="#0000ff" fill-opacity="0.35"/>
<circle cx="69.6" cy="55.9" r="2.3" fill="#0000ff" fill-opacity="0.40"/>
<circle cx="47.6" cy="69.2" r="2.3" fill="#0000ff" fill-opacity="0.39"/>
<circle cx="71.3" cy="69.6" r="2.3" fill="#0000ff" fill-opacity="0.43"/>
<circle cx="55.7" cy="44.8" r="2.3" fill="#0000ff" fill-opacity="0.40"/>
<circle cx="95.0" cy="70.0" r="2.3" fill="#0000ff" fill-opacity="0.36"/>
<circle cx="49.2" cy="82.9" r="2.3" fill="#0000ff" fill-opacity="0.40"/>
<circle cx="79.4" cy="45.2" r="2.3" fill="#0000ff" fill-opacity="0.40"/>
<circle cx="33.7" cy="58.1" r="2.3" fill="#0000ff" fill-opacity="0.36"/>
<circle cx="72.9" cy="83.3" r="2.3" fill="#0000ff" fill-opacity="0.43"/>
<circle cx="57.4" cy="58.5" r="2.3" fill="#0000ff" fill-opacity="0.47"/>
<circle cx="50.9" cy="96.6" r="2.3" fill="#0000ff" fill-opacity="0.36"/>
<circle cx="81.1" cy="58.9" r="2.3" fill="#0000ff" fill-opacity="0.46"/>
<circle cx="35.4" cy="71.8" r="2.3" fill="#0000ff" fill-opacity="0.40"/>
<circle cx="74.6" cy="97.1" r="2.3" fill="#0000ff" fill-opacity="0.38"/>
<circle cx="65.5" cy="34.1" r="2.3" fill="#0000ff" fill-opacity="0.40"/>
<circle cx="59.1" cy="72.2" r="2.4" fill="#0000ff" fill-opacity="0.50"/>
<circle cx="89.2" cy="34.6" r="2.4" fill="#0000ff" fill-opacity="0.35"/>
<circle cx="43.5" cy="47.4" r="2.4" fill="#0000ff" fill-opacity="0.43"/>
<circle cx="82.8" cy="72.7" r="2.4" fill="#0000ff" fill-opacity="0.48"/>
<circle cx="37.0" cy="85.5" r="2.4" fill="#0000ff" fill-opacity="0.39"/>
<circle cx="67.2" cy="47.9" r="2.4" fill="#0000ff" fill-opacity="0.50"/>
<circle cx="60.7" cy="86.0" r="2.4" fill="#0000ff" fill-opacity="0.48"/>
<circle cx="90.9" cy="48.3" r="2.4" fill="#0000ff" fill-opacity="0.43"/>
<circle cx="45.2" cy="61.2" r="2.4" fill="#0000ff" fill-opacity="0.50"/>
<circle cx="84.4" cy="86.4" r="2.4" fill="#0000ff" fill-opacity="0.45"/>
<circle cx="75.4" cy="23.5" r="2.4" fill="#0000ff" fill-opacity="0.35"/>
<circle cx="38.7" cy="99.3" r="2.4" fill="#0000ff" fill-opacity="0.35"/>
<circle cx="68.9" cy="61.6" r="2.4" fill="#0000ff" fill-opacity="0.56"/>
<circle cx="23.2" cy="74.5" r="2.4" fill="#0000ff" fill-opacity="0.36"/>
<circle cx="62.4" cy="99.7" r="2.4" fill="#0000ff" fill-opacity="0.43"/>
<circle cx="53.3" cy="36.8" r="2.4" fill="#0000ff" fill-opacity="0.46"/>
<circle cx="92.6" cy="62.0" r="2.4" fill="#0000ff" fill-opacity="0.48"/>
<circle cx="46.8" cy="74.9" r="2.4" fill="#0000ff" fill-opacity="0.52"/>
<circle cx="86.1" cy="100.1" r="2.4" fill="#0000ff" fill-opacity="0.39"/>
<circle cx="77.0" cy="37.2" r="2.4" fill="#0000ff" fill-opacity="0.47"/>
<circle cx="31.3" cy="50.1" r="2.4" fill="#0000ff" fill-opacity="0.43"/>
<circle cx="70.5" cy="75.3" r="2.4" fill="#0000ff" fill-opacity="0.57"/>
<circle cx="100.7" cy="37.6" r="2.4" fill="#0000ff" fill-opacity="0.36"/>
<circle cx="24.8" cy="88.2" r="2.4" fill="#0000ff" fill-opacity="0.35"/>
<circle cx="55.0" cy="50.5" r="2.5" fill="#0000ff" fill-opacity="0.56"/>
<circle cx="94.2" cy="75.7" r="2.5" fill="#0000ff" fill-opacity="0.48"/>
<circle cx="48.5" cy="88.6" r="2.5" fill="#0000ff" fill-opacity="0.50"/>
<circle cx="39.5" cy="25.7" r="2.5" fill="#0000ff" fill-opacity="0.36"/>
<circle cx="78.7" cy="50.9" r="2.5" fill="#0000ff" fill-opacity="0.56"/>
<circle cx="33.0" cy="63.8" r="2.5" fill="#0000ff" fill-opacity="0.48"/>
<circle cx="72.2" cy="89.0" r="2.5" fill="#0000ff" fill-opacity="0.53"/>
<circle cx="63.1" cy="26.1" r="2.5" fill="#0000ff" fill-opacity="0.43"/>
<circle cx="102.4" cy="51.4" r="2.5" fill="#0000ff" fill-opacity="0.43"/>
<circle cx="56.7" cy="64.2" r="2.5" fill="#0000ff" fill-opacity="0.62"/>
<circle cx="95.9" cy="89.5" r="2.5" fill="#0000ff" fill-opacity="0.43"/>
<circle cx="86.8" cy="26.6" r="2.5" fill="#0000ff" fill-opacity="0.39"/>
<circle cx="50.2" cy="102.3" r="2.5" fill="#0000ff" fill-opacity="0.43"/>
<circle cx="41.1" cy="39.4" r="2.5" fill="#0000ff" fill-opacity="0.48"/>
<circle cx="80.4" cy="64.7" r="2.5" fill="#0000ff" fill-opacity="0.61"/>
<circle cx="34.6" cy="77.5" r="2.5" fill="#0000ff" fill-opacity="0.50"/>
<circle cx="73.9" cy="102.8" r="2.5" fill="#0000ff" fill-opacity="0.45"/>
<circle cx="64.8" cy="39.8" r="2.5" fill="#0000ff" fill-opacity="0.56"/>
<circle cx="104.0" cy="65.1" r="2.5" fill="#0000ff" fill-opacity="0.45"/>
<circle cx="19.1" cy="52.7" r="2.5" fill="#0000ff" fill-opacity="0.38"/>
<circle cx="58.3" cy="78.0" r="2.5" fill="#0000ff" fill-opacity="0.63"/>
<circle cx="97.6" cy="103.2" r="2.5" fill="#0000ff" fill-opacity="0.36"/>
<circle cx="88.5" cy="40.3" r="2.5" fill="#0000ff" fill-opacity="0.50"/>
<circle cx="42.8" cy="53.1" r="2.5" fill="#0000ff" fill-opacity="0.57"/>
<circle cx="82.0" cy="78.4" r="2.5" fill="#0000ff" fill-opacity="0.60"/>
<circle cx="73.0" cy="15.5" r="2.5" fill="#0000ff" fill-opacity="0.36"/>
<circle cx="36.3" cy="91.3" r="2.5" fill="#0000ff" fill-opacity="0.47"/>
<circle cx="66.5" cy="53.6" r="2.5" fill="#0000ff" fill-opacity="0.66"/>
<circle cx="105.7" cy="78.8" r="2.5" fill="#0000ff" fill-opacity="0.43"/>
<circle cx="20.8" cy="66.4" r="2.5" fill="#0000ff" fill-opacity="0.43"/>
<circle cx="60.0" cy="91.7" r="2.5" fill="#0000ff" fill-opacity="0.57"/>
<circle cx="50.9" cy="28.8" r="2.5" fill="#0000ff" fill-opacity="0.48"/>
<circle cx="90.2" cy="54.0" r="2.5" fill="#0000ff" fill-opacity="0.57"/>
<circle cx="44.4" cy="66.9" r="2.6" fill="#0000ff" fill-opacity="0.63"/>
<circle cx="83.7" cy="92.1" r="2.6" fill="#0000ff" fill-opacity="0.54"/>
<circle cx="74.6" cy="29.2" r="2.6" fill="#0000ff" fill-opacity="0.50"/>
<circle cx="113.9" cy="54.4" r="2.6" fill="#0000ff" fill-opacity="0.38"/>
<circle cx="38.0" cy="105.0" r="2.6" fill="#0000ff" fill-opacity="0.40"/>
<circle cx="28.9" cy="42.1" r="2.6" fill="#0000ff" fill-opacity="0.45"/>
<circle cx="68.1" cy="67.3" r="2.6" fill="#0000ff" fill-opacity="0.72"/>
<circle cx="107.4" cy="92.5" r="2.6" fill="#0000ff" fill-opacity="0.38"/>
<circle cx="98.3" cy="29.6" r="2.6" fill="#0000ff" fill-opacity="0.40"/>
<circle cx="22.4" cy="80.2" r="2.6" fill="#0000ff" fill-opacity="0.43"/>
<circle cx="61.7" cy="105.4" r="2.6" fill="#0000ff" fill-opacity="0.48"/>
<circle cx="52.6" cy="42.5" r="2.6" fill="#0000ff" fill-opacity="0.61"/>
<circle cx="91.8" cy="67.7" r="2.6" fill="#0000ff" fill-opacity="0.60"/>
<circle cx="46.1" cy="80.6" r="2.6" fill="#0000ff" fill-opacity="0.62"/>
<circle cx="85.3" cy="105.8" r="2.6" fill="#0000ff" fill-opacity="0.43"/>
<circle cx="76.3" cy="42.9" r="2.6" fill="#0000ff" fill-opacity="0.62"/>
<circle cx="115.5" cy="68.2" r="2.6" fill="#0000ff" fill-opacity="0.39"/>
<circle cx="30.6" cy="55.8" r="2.6" fill="#0000ff" fill-opacity="0.53"/>
<circle cx="69.8" cy="81.0" r="2.6" fill="#0000ff" fill-opacity="0.69"/>
<circle cx="60.7" cy="18.1" r="2.6" fill="#0000ff" fill-opacity="0.43"/>
<circle cx="100.0" cy="43.3" r="2.6" fill="#0000ff" fill-opacity="0.48"/>
<circle cx="24.1" cy="93.9" r="2.6" fill="#0000ff" fill-opacity="0.40"/>
<circle cx="63.3" cy="119.1" r="2.6" fill="#0000ff" fill-opacity="0.36"/>
<circle cx="54.3" cy="56.2" r="2.6" fill="#0000ff" fill-opacity="0.72"/>
<circle cx="93.5" cy="81.5" r="2.6" fill="#0000ff" fill-opacity="0.57"/>
<circle cx="84.4" cy="18.5" r="2.6" fill="#0000ff" fill-opacity="0.40"/>
<circle cx="47.8" cy="94.3" r="2.6" fill="#0000ff" fill-opacity="0.56"/>
<circle cx="38.7" cy="31.4" r="2.6" fill="#0000ff" fill-opacity="0.48"/>
<circle cx="78.0" cy="56.6" r="2.6" fill="#0000ff" fill-opacity="0.72"/>
<circle cx="117.2" cy="81.9" r="2.6" fill="#0000ff" fill-opacity="0.36"/>
<circle cx="32.2" cy="69.5" r="2.6" fill="#0000ff" fill-opacity="0.57"/>
<circle cx="71.5" cy="94.8" r="2.6" fill="#0000ff" fill-opacity="0.60"/>
<circle cx="62.4" cy="31.8" r="2.6" fill="#0000ff" fill-opacity="0.57"/>
<circle cx="101.6" cy="57.1" r="2.6" fill="#0000ff" fill-opacity="0.53"/>
<circle cx="16.7" cy="44.7" r="2.6" fill="#0000ff" fill-opacity="0.39"/>
<circle cx="55.9" cy="69.9" r="2.6" fill="#0000ff" fill-opacity="0.76"/>
<circle cx="95.2" cy="95.2" r="2.6" fill="#0000ff" fill-opacity="0.49"/>
<circle cx="86.1" cy="32.3" r="2.6" fill="#0000ff" fill-opacity="0.52"/>
<circle cx="49.4" cy="108.1" r="2.6" fill="#0000ff" fill-opacity="0.46"/>
<circle cx="40.4" cy="45.1" r="2.7" fill="#0000ff" fill-opacity="0.60"/>
<circle cx="79.6" cy="70.4" r="2.7" fill="#0000ff" fill-opacity="0.74"/>
<circle cx="109.8" cy="32.7" r="2.7" fill="#0000ff" fill-opacity="0.36"/>
<circle cx="33.9" cy="83.2" r="2.7" fill="#0000ff" fill-opacity="0.56"/>
<circle cx="73.1" cy="108.5" r="2.7" fill="#0000ff" fill-opacity="0.48"/>
<circle cx="64.1" cy="45.6" r="2.7" fill="#0000ff" fill-opacity="0.72"/>
<circle cx="103.3" cy="70.8" r="2.7" fill="#0000ff" fill-opacity="0.54"/>
<circle cx="18.4" cy="58.4" r="2.7" fill="#0000ff" fill-opacity="0.45"/>
<circle cx="57.6" cy="83.7" r="2.7" fill="#0000ff" fill-opacity="0.72"/>
<circle cx="96.8" cy="108.9" r="2.7" fill="#0000ff" fill-opacity="0.38"/>
<circle cx="48.5" cy="20.7" r="2.7" fill="#0000ff" fill-opacity="0.45"/>
<circle cx="87.8" cy="46.0" r="2.7" fill="#0000ff" fill-opacity="0.63"/>
<circle cx="42.0" cy="58.9" r="2.7" fill="#0000ff" fill-opacity="0.69"/>
<circle cx="81.3" cy="84.1" r="2.7" fill="#0000ff" fill-opacity="0.68"/>
<circle cx="72.2" cy="21.2" r="2.7" fill="#0000ff" fill-opacity="0.48"/>
<circle cx="111.5" cy="46.4" r="2.7" fill="#0000ff" fill-opacity="0.43"/>
<circle cx="35.6" cy="97.0" r="2.7" fill="#0000ff" fill-opacity="0.50"/>
<circle cx="26.5" cy="34.0" r="2.7" fill="#0000ff" fill-opacity="0.43"/>
<circle cx="65.7" cy="59.3" r="2.7" fill="#0000ff" fill-opacity="0.83"/>
<circle cx="105.0" cy="84.5" r="2.7" fill="#0000ff" fill-opacity="0.49"/>
<circle cx="95.9" cy="21.6" r="2.7" fill="#0000ff" fill-opacity="0.39"/>
<circle cx="20.0" cy="72.2" r="2.7" fill="#0000ff" fill-opacity="0.48"/>
<circle cx="59.3" cy="97.4" r="2.7" fill="#0000ff" fill-opacity="0.61"/>
<circle cx="50.2" cy="34.5" r="2.7" fill="#0000ff" fill-opacity="0.60"/>
<circle cx="89.4" cy="59.7" r="2.7" fill="#0000ff" fill-opacity="0.69"/>
<circle cx="43.7" cy="72.6" r="2.7" fill="#0000ff" fill-opacity="0.72"/>
<circle cx="82.9" cy="97.8" r="2.7" fill="#0000ff" fill-opacity="0.57"/>
<circle cx="73.9" cy="34.9" r="2.7" fill="#0000ff" fill-opacity="0.63"/>
<circle cx="113.1" cy="60.1" r="2.7" fill="#0000ff" fill-opacity="0.45"/>
<circle cx="37.2" cy="110.7" r="2.7" fill="#0000ff" fill-opacity="0.40"/>
<circle cx="28.2" cy="47.8" r="2.7" fill="#0000ff" fill-opacity="0.54"/>
<circle cx="67.4" cy="73.0" r="2.7" fill="#0000ff" fill-opacity="0.84"/>
<circle cx="106.6" cy="98.3" r="2.7" fill="#0000ff" fill-opacity="0.40"/>
<circle cx="58.3" cy="10.1" r="2.7" fill="#0000ff" fill-opacity="0.38"/>
<circle cx="97.6" cy="35.3" r="2.7" fill="#0000ff" fill-opacity="0.50"/>
<circle cx="21.7" cy="85.9" r="2.7" fill="#0000ff" fill-opacity="0.46"/>
<circle cx="60.9" cy="111.1" r="2.7" fill="#0000ff" fill-opacity="0.48"/>
<circle cx="51.9" cy="48.2" r="2.7" fill="#0000ff" fill-opacity="0.74"/>
<circle cx="91.1" cy="73.4" r="2.7" fill="#0000ff" fill-opacity="0.68"/>
<circle cx="82.0" cy="10.5" r="2.7" fill="#0000ff" fill-opacity="0.36"/>
<circle cx="45.4" cy="86.3" r="2.7" fill="#0000ff" fill-opacity="0.66"/>
<circle cx="84.6" cy="111.6" r="2.7" fill="#0000ff" fill-opacity="0.43"/>
<circle cx="36.3" cy="23.4" r="2.7" fill="#0000ff" fill-opacity="0.43"/>
<circle cx="75.6" cy="48.6" r="2.7" fill="#0000ff" fill-opacity="0.76"/>
<circle cx="114.8" cy="73.9" r="2.7" fill="#0000ff" fill-opacity="0.43"/>
<circle cx="29.8" cy="61.5" r="2.8" fill="#0000ff" fill-opacity="0.60"/>
<circle cx="69.1" cy="86.7" r="2.8" fill="#0000ff" fill-opacity="0.74"/>
<circle cx="60.0" cy="23.8" r="2.8" fill="#0000ff" fill-opacity="0.53"/>
<circle cx="99.2" cy="49.1" r="2.8" fill="#0000ff" fill-opacity="0.57"/>
<circle cx="23.3" cy="99.6" r="2.8" fill="#0000ff" fill-opacity="0.40"/>
<circle cx="14.3" cy="36.7" r="2.8" fill="#0000ff" fill-opacity="0.36"/>
<circle cx="53.5" cy="61.9" r="2.8" fill="#0000ff" fill-opacity="0.84"/>
<circle cx="92.8" cy="87.2" r="2.8" fill="#0000ff" fill-opacity="0.60"/>
<circle cx="83.7" cy="24.2" r="2.8" fill="#0000ff" fill-opacity="0.50"/>
<circle cx="7.8" cy="74.8" r="2.8" fill="#0000ff" fill-opacity="0.36"/>
<circle cx="47.0" cy="100.0" r="2.8" fill="#0000ff" fill-opacity="0.56"/>
<circle cx="38.0" cy="37.1" r="2.8" fill="#0000ff" fill-opacity="0.57"/>
<circle cx="77.2" cy="62.4" r="2.8" fill="#0000ff" fill-opacity="0.84"/>
<circle cx="116.5" cy="87.6" r="2.8" fill="#0000ff" fill-opacity="0.38"/>
<circle cx="107.4" cy="24.7" r="2.8" fill="#0000ff" fill-opacity="0.35"/>
<circle cx="31.5" cy="75.2" r="2.8" fill="#0000ff" fill-opacity="0.61"/>
<circle cx="70.7" cy="100.5" r="2.8" fill="#0000ff" fill-opacity="0.60"/>
<circle cx="61.7" cy="37.5" r="2.8" fill="#0000ff" fill-opacity="0.69"/>
<circle cx="100.9" cy="62.8" r="2.8" fill="#0000ff" fill-opacity="0.60"/>
<circle cx="15.9" cy="50.4" r="2.8" fill="#0000ff" fill-opacity="0.43"/>
<circle cx="55.2" cy="75.7" r="2.8" fill="#0000ff" fill-opacity="0.83"/>
<circle cx="94.4" cy="100.9" r="2.8" fill="#0000ff" fill-opacity="0.49"/>
<circle cx="46.1" cy="12.7" r="2.8" fill="#0000ff" fill-opacity="0.39"/>
<circle cx="85.4" cy="38.0" r="2.8" fill="#0000ff" fill-opacity="0.62"/>
<circle cx="48.7" cy="113.8" r="2.8" fill="#0000ff" fill-opacity="0.43"/>
<circle cx="39.6" cy="50.8" r="2.8" fill="#0000ff" fill-opacity="0.68"/>
<circle cx="78.9" cy="76.1" r="2.8" fill="#0000ff" fill-opacity="0.80"/>
<circle cx="69.8" cy="13.2" r="2.8" fill="#0000ff" fill-opacity="0.43"/>
<circle cx="109.1" cy="38.4" r="2.8" fill="#0000ff" fill-opacity="0.43"/>
<circle cx="33.2" cy="89.0" r="2.8" fill="#0000ff" fill-opacity="0.56"/>
<circle cx="72.4" cy="114.2" r="2.8" fill="#0000ff" fill-opacity="0.45"/>
<circle cx="24.1" cy="26.0" r="2.8" fill="#0000ff" fill-opacity="0.38"/>
<circle cx="63.3" cy="51.3" r="2.8" fill="#0000ff" fill-opacity="0.84"/>
<circle cx="102.6" cy="76.5" r="2.8" fill="#0000ff" fill-opacity="0.57"/>
<circle cx="93.5" cy="13.6" r="2.8" fill="#0000ff" fill-opacity="0.35"/>
<circle cx="17.6" cy="64.1" r="2.8" fill="#0000ff" fill-opacity="0.48"/>
<circle cx="56.9" cy="89.4" r="2.8" fill="#0000ff" fill-opacity="0.72"/>
<circle cx="96.1" cy="114.6" r="2.8" fill="#0000ff" fill-opacity="0.36"/>
<circle cx="47.8" cy="26.5" r="2.8" fill="#0000ff" fill-opacity="0.54"/>
<circle cx="87.0" cy="51.7" r="2.8" fill="#0000ff" fill-opacity="0.72"/>
<circle cx="41.3" cy="64.6" r="2.8" fill="#0000ff" fill-opacity="0.74"/>
<circle cx="80.5" cy="89.8" r="2.8" fill="#0000ff" fill-opacity="0.68"/>
<circle cx="71.5" cy="26.9" r="2.8" fill="#0000ff" fill-opacity="0.57"/>
<circle cx="110.7" cy="52.1" r="2.8" fill="#0000ff" fill-opacity="0.48"/>
<circle cx="34.8" cy="102.7" r="2.8" fill="#0000ff" fill-opacity="0.47"/>
<circle cx="25.8" cy="39.8" r="2.8" fill="#0000ff" fill-opacity="0.49"/>
<circle cx="65.0" cy="65.0" r="2.9" fill="#0000ff" fill-opacity="1.00"/>
<circle cx="104.2" cy="90.2" r="2.9" fill="#0000ff" fill-opacity="0.49"/>
<circle cx="95.2" cy="27.3" r="2.9" fill="#0000ff" fill-opacity="0.47"/>
<circle cx="19.3" cy="77.9" r="2.9" fill="#0000ff" fill-opacity="0.48"/>
<circle cx="58.5" cy="103.1" r="2.9" fill="#0000ff" fill-opacity="0.57"/>
<circle cx="49.5" cy="40.2" r="2.9" fill="#0000ff" fill-opacity="0.68"/>
<circle cx="88.7" cy="65.4" r="2.9" fill="#0000ff" fill-opacity="0.74"/>
<circle cx="43.0" cy="78.3" r="2.9" fill="#0000ff" fill-opacity="0.72"/>
<circle cx="82.2" cy="103.5" r="2.9" fill="#0000ff" fill-opacity="0.54"/>
<circle cx="33.9" cy="15.4" r="2.9" fill="#0000ff" fill-opacity="0.36"/>
<circle cx="73.1" cy="40.6" r="2.9" fill="#0000ff" fill-opacity="0.72"/>
<circle cx="112.4" cy="65.9" r="2.9" fill="#0000ff" fill-opacity="0.48"/>
<circle cx="36.5" cy="116.4" r="2.9" fill="#0000ff" fill-opacity="0.35"/>
<circle cx="27.4" cy="53.5" r="2.9" fill="#0000ff" fill-opacity="0.57"/>
<circle cx="66.7" cy="78.7" r="2.9" fill="#0000ff" fill-opacity="0.84"/>
<circle cx="105.9" cy="104.0" r="2.9" fill="#0000ff" fill-opacity="0.38"/>
<circle cx="57.6" cy="15.8" r="2.9" fill="#0000ff" fill-opacity="0.45"/>
<circle cx="96.8" cy="41.0" r="2.9" fill="#0000ff" fill-opacity="0.56"/>
<circle cx="20.9" cy="91.6" r="2.9" fill="#0000ff" fill-opacity="0.43"/>
<circle cx="60.2" cy="116.8" r="2.9" fill="#0000ff" fill-opacity="0.43"/>
<circle cx="51.1" cy="53.9" r="2.9" fill="#0000ff" fill-opacity="0.80"/>
<circle cx="90.4" cy="79.2" r="2.9" fill="#0000ff" fill-opacity="0.68"/>
<circle cx="81.3" cy="16.2" r="2.9" fill="#0000ff" fill-opacity="0.43"/>
<circle cx="44.6" cy="92.0" r="2.9" fill="#0000ff" fill-opacity="0.62"/>
<circle cx="83.9" cy="117.3" r="2.9" fill="#0000ff" fill-opacity="0.39"/>
<circle cx="35.6" cy="29.1" r="2.9" fill="#0000ff" fill-opacity="0.49"/>
<circle cx="74.8" cy="54.3" r="2.9" fill="#0000ff" fill-opacity="0.83"/>
<circle cx="114.1" cy="79.6" r="2.9" fill="#0000ff" fill-opacity="0.43"/>
<circle cx="29.1" cy="67.2" r="2.9" fill="#0000ff" fill-opacity="0.60"/>
<circle cx="68.3" cy="92.5" r="2.9" fill="#0000ff" fill-opacity="0.69"/>
<circle cx="59.3" cy="29.5" r="2.9" fill="#0000ff" fill-opacity="0.60"/>
<circle cx="98.5" cy="54.8" r="2.9" fill="#0000ff" fill-opacity="0.61"/>
<circle cx="22.6" cy="105.3" r="2.9" fill="#0000ff" fill-opacity="0.35"/>
<circle cx="13.5" cy="42.4" r="2.9" fill="#0000ff" fill-opacity="0.38"/>
<circle cx="52.8" cy="67.6" r="2.9" fill="#0000ff" fill-opacity="0.84"/>
<circle cx="92.0" cy="92.9" r="2.9" fill="#0000ff" fill-opacity="0.57"/>
<circle cx="83.0" cy="30.0" r="2.9" fill="#0000ff" fill-opacity="0.56"/>
<circle cx="122.2" cy="55.2" r="2.9" fill="#0000ff" fill-opacity="0.36"/>
<circle cx="46.3" cy="105.8" r="2.9" fill="#0000ff" fill-opacity="0.50"/>
<circle cx="37.2" cy="42.8" r="2.9" fill="#0000ff" fill-opacity="0.60"/>
<circle cx="76.5" cy="68.1" r="2.9" fill="#0000ff" fill-opacity="0.84"/>
<circle cx="115.7" cy="93.3" r="2.9" fill="#0000ff" fill-opacity="0.36"/>
<circle cx="106.7" cy="30.4" r="2.9" fill="#0000ff" fill-opacity="0.40"/>
<circle cx="30.8" cy="80.9" r="2.9" fill="#0000ff" fill-opacity="0.57"/>
<circle cx="70.0" cy="106.2" r="2.9" fill="#0000ff" fill-opacity="0.53"/>
<circle cx="60.9" cy="43.3" r="2.9" fill="#0000ff" fill-opacity="0.74"/>
<circle cx="100.2" cy="68.5" r="2.9" fill="#0000ff" fill-opacity="0.60"/>
<circle cx="15.2" cy="56.1" r="3.0" fill="#0000ff" fill-opacity="0.43"/>
<circle cx="54.4" cy="81.4" r="3.0" fill="#0000ff" fill-opacity="0.76"/>
<circle cx="93.7" cy="106.6" r="3.0" fill="#0000ff" fill-opacity="0.43"/>
<circle cx="45.4" cy="18.4" r="3.0" fill="#0000ff" fill-opacity="0.43"/>
<circle cx="84.6" cy="43.7" r="3.0" fill="#0000ff" fill-opacity="0.66"/>
<circle cx="48.0" cy="119.5" r="3.0" fill="#0000ff" fill-opacity="0.36"/>
<circle cx="38.9" cy="56.6" r="3.0" fill="#0000ff" fill-opacity="0.68"/>
<circle cx="78.1" cy="81.8" r="3.0" fill="#0000ff" fill-opacity="0.74"/>
<circle cx="69.1" cy="18.9" r="3.0" fill="#0000ff" fill-opacity="0.48"/>
<circle cx="108.3" cy="44.1" r="3.0" fill="#0000ff" fill-opacity="0.46"/>
<circle cx="32.4" cy="94.7" r="3.0" fill="#0000ff" fill-opacity="0.50"/>
<circle cx="71.7" cy="119.9" r="3.0" fill="#0000ff" fill-opacity="0.38"/>
<circle cx="23.4" cy="31.7" r="3.0" fill="#0000ff" fill-opacity="0.40"/>
<circle cx="62.6" cy="57.0" r="3.0" fill="#0000ff" fill-opacity="0.84"/>
<circle cx="101.8" cy="82.2" r="3.0" fill="#0000ff" fill-opacity="0.54"/>
<circle cx="92.8" cy="19.3" r="3.0" fill="#0000ff" fill-opacity="0.40"/>
<circle cx="16.9" cy="69.9" r="3.0" fill="#0000ff" fill-opacity="0.45"/>
<circle cx="56.1" cy="95.1" r="3.0" fill="#0000ff" fill-opacity="0.63"/>
<circle cx="47.1" cy="32.2" r="3.0" fill="#0000ff" fill-opacity="0.57"/>
<circle cx="86.3" cy="57.4" r="3.0" fill="#0000ff" fill-opacity="0.72"/>
<circle cx="40.6" cy="70.3" r="3.0" fill="#0000ff" fill-opacity="0.69"/>
<circle cx="79.8" cy="95.5" r="3.0" fill="#0000ff" fill-opacity="0.60"/>
<circle cx="70.7" cy="32.6" r="3.0" fill="#0000ff" fill-opacity="0.61"/>
<circle cx="110.0" cy="57.8" r="3.0" fill="#0000ff" fill-opacity="0.48"/>
<circle cx="34.1" cy="108.4" r="3.0" fill="#0000ff" fill-opacity="0.39"/>
<circle cx="25.0" cy="45.5" r="3.0" fill="#0000ff" fill-opacity="0.49"/>
<circle cx="64.3" cy="70.7" r="3.0" fill="#0000ff" fill-opacity="0.83"/>
<circle cx="103.5" cy="96.0" r="3.0" fill="#0000ff" fill-opacity="0.43"/>
<circle cx="94.4" cy="33.0" r="3.0" fill="#0000ff" fill-opacity="0.50"/>
<circle cx="18.5" cy="83.6" r="3.0" fill="#0000ff" fill-opacity="0.43"/>
<circle cx="57.8" cy="108.8" r="3.0" fill="#0000ff" fill-opacity="0.48"/>
<circle cx="48.7" cy="45.9" r="3.0" fill="#0000ff" fill-opacity="0.68"/>
<circle cx="88.0" cy="71.1" r="3.0" fill="#0000ff" fill-opacity="0.69"/>
<circle cx="42.2" cy="84.0" r="3.0" fill="#0000ff" fill-opacity="0.63"/>
<circle cx="81.5" cy="109.3" r="3.0" fill="#0000ff" fill-opacity="0.45"/>
<circle cx="33.2" cy="21.1" r="3.0" fill="#0000ff" fill-opacity="0.38"/>
<circle cx="72.4" cy="46.3" r="3.0" fill="#0000ff" fill-opacity="0.72"/>
<circle cx="111.6" cy="71.6" r="3.0" fill="#0000ff" fill-opacity="0.45"/>
<circle cx="26.7" cy="59.2" r="3.0" fill="#0000ff" fill-opacity="0.54"/>
<circle cx="65.9" cy="84.4" r="3.0" fill="#0000ff" fill-opacity="0.72"/>
<circle cx="56.9" cy="21.5" r="3.0" fill="#0000ff" fill-opacity="0.48"/>
<circle cx="96.1" cy="46.8" r="3.0" fill="#0000ff" fill-opacity="0.56"/>
<circle cx="20.2" cy="97.3" r="3.0" fill="#0000ff" fill-opacity="0.36"/>
<circle cx="50.4" cy="59.6" r="3.0" fill="#0000ff" fill-opacity="0.74"/>
<circle cx="89.6" cy="84.9" r="3.0" fill="#0000ff" fill-opacity="0.60"/>
<circle cx="80.6" cy="21.9" r="3.1" fill="#0000ff" fill-opacity="0.46"/>
<circle cx="43.9" cy="97.7" r="3.1" fill="#0000ff" fill-opacity="0.52"/>
<circle cx="34.8" cy="34.8" r="3.1" fill="#0000ff" fill-opacity="0.49"/>
<circle cx="74.1" cy="60.1" r="3.1" fill="#0000ff" fill-opacity="0.76"/>
<circle cx="113.3" cy="85.3" r="3.1" fill="#0000ff" fill-opacity="0.39"/>
<circle cx="28.4" cy="72.9" r="3.1" fill="#0000ff" fill-opacity="0.53"/>
<circle cx="67.6" cy="98.2" r="3.1" fill="#0000ff" fill-opacity="0.57"/>
<circle cx="58.5" cy="35.2" r="3.1" fill="#0000ff" fill-opacity="0.60"/>
<circle cx="97.8" cy="60.5" r="3.1" fill="#0000ff" fill-opacity="0.57"/>
<circle cx="12.8" cy="48.1" r="3.1" fill="#0000ff" fill-opacity="0.36"/>
<circle cx="52.0" cy="73.4" r="3.1" fill="#0000ff" fill-opacity="0.72"/>
<circle cx="91.3" cy="98.6" r="3.1" fill="#0000ff" fill-opacity="0.48"/>
<circle cx="82.2" cy="35.7" r="3.1" fill="#0000ff" fill-opacity="0.56"/>
<circle cx="45.6" cy="111.5" r="3.1" fill="#0000ff" fill-opacity="0.40"/>
<circle cx="36.5" cy="48.5" r="3.1" fill="#0000ff" fill-opacity="0.57"/>
<circle cx="75.7" cy="73.8" r="3.1" fill="#0000ff" fill-opacity="0.72"/>
<circle cx="66.7" cy="10.9" r="3.1" fill="#0000ff" fill-opacity="0.36"/>
<circle cx="105.9" cy="36.1" r="3.1" fill="#0000ff" fill-opacity="0.40"/>
<circle cx="30.0" cy="86.7" r="3.1" fill="#0000ff" fill-opacity="0.48"/>
<circle cx="69.3" cy="111.9" r="3.1" fill="#0000ff" fill-opacity="0.43"/>
<circle cx="60.2" cy="49.0" r="3.1" fill="#0000ff" fill-opacity="0.69"/>
<circle cx="99.4" cy="74.2" r="3.1" fill="#0000ff" fill-opacity="0.53"/>
<circle cx="14.5" cy="61.8" r="3.1" fill="#0000ff" fill-opacity="0.39"/>
<circle cx="53.7" cy="87.1" r="3.1" fill="#0000ff" fill-opacity="0.62"/>
<circle cx="44.7" cy="24.2" r="3.1" fill="#0000ff" fill-opacity="0.43"/>
<circle cx="83.9" cy="49.4" r="3.1" fill="#0000ff" fill-opacity="0.62"/>
<circle cx="38.2" cy="62.3" r="3.1" fill="#0000ff" fill-opacity="0.60"/>
<circle cx="77.4" cy="87.5" r="3.1" fill="#0000ff" fill-opacity="0.61"/>
<circle cx="68.3" cy="24.6" r="3.1" fill="#0000ff" fill-opacity="0.48"/>
<circle cx="107.6" cy="49.8" r="3.1" fill="#0000ff" fill-opacity="0.43"/>
<circle cx="31.7" cy="100.4" r="3.1" fill="#0000ff" fill-opacity="0.40"/>
<circle cx="22.6" cy="37.5" r="3.1" fill="#0000ff" fill-opacity="0.38"/>
<circle cx="61.9" cy="62.7" r="3.1" fill="#0000ff" fill-opacity="0.72"/>
<circle cx="101.1" cy="87.9" r="3.1" fill="#0000ff" fill-opacity="0.45"/>
<circle cx="92.0" cy="25.0" r="3.1" fill="#0000ff" fill-opacity="0.40"/>
<circle cx="16.1" cy="75.6" r="3.1" fill="#0000ff" fill-opacity="0.38"/>
<circle cx="55.4" cy="100.8" r="3.1" fill="#0000ff" fill-opacity="0.50"/>
<circle cx="46.3" cy="37.9" r="3.1" fill="#0000ff" fill-opacity="0.54"/>
<circle cx="85.6" cy="63.1" r="3.1" fill="#0000ff" fill-opacity="0.63"/>
<circle cx="39.8" cy="76.0" r="3.2" fill="#0000ff" fill-opacity="0.57"/>
<circle cx="79.1" cy="101.2" r="3.2" fill="#0000ff" fill-opacity="0.48"/>
<circle cx="70.0" cy="38.3" r="3.2" fill="#0000ff" fill-opacity="0.57"/>
<circle cx="109.2" cy="63.6" r="3.2" fill="#0000ff" fill-opacity="0.43"/>
<circle cx="24.3" cy="51.2" r="3.2" fill="#0000ff" fill-opacity="0.43"/>
<circle cx="63.5" cy="76.4" r="3.2" fill="#0000ff" fill-opacity="0.66"/>
<circle cx="93.7" cy="38.7" r="3.2" fill="#0000ff" fill-opacity="0.47"/>
<circle cx="57.0" cy="114.5" r="3.2" fill="#0000ff" fill-opacity="0.36"/>
<circle cx="48.0" cy="51.6" r="3.2" fill="#0000ff" fill-opacity="0.60"/>
<circle cx="87.2" cy="76.9" r="3.2" fill="#0000ff" fill-opacity="0.57"/>
<circle cx="41.5" cy="89.7" r="3.2" fill="#0000ff" fill-opacity="0.50"/>
<circle cx="32.4" cy="26.8" r="3.2" fill="#0000ff" fill-opacity="0.36"/>
<circle cx="71.7" cy="52.0" r="3.2" fill="#0000ff" fill-opacity="0.63"/>
<circle cx="110.9" cy="77.3" r="3.2" fill="#0000ff" fill-opacity="0.38"/>
<circle cx="26.0" cy="64.9" r="3.2" fill="#0000ff" fill-opacity="0.45"/>
<circle cx="65.2" cy="90.2" r="3.2" fill="#0000ff" fill-opacity="0.56"/>
<circle cx="56.1" cy="27.2" r="3.2" fill="#0000ff" fill-opacity="0.45"/>
<circle cx="95.4" cy="52.5" r="3.2" fill="#0000ff" fill-opacity="0.50"/>
<circle cx="49.6" cy="65.3" r="3.2" fill="#0000ff" fill-opacity="0.61"/>
<circle cx="88.9" cy="90.6" r="3.2" fill="#0000ff" fill-opacity="0.48"/>
<circle cx="79.8" cy="27.7" r="3.2" fill="#0000ff" fill-opacity="0.43"/>
<circle cx="43.2" cy="103.4" r="3.2" fill="#0000ff" fill-opacity="0.39"/>
<circle cx="34.1" cy="40.5" r="3.2" fill="#0000ff" fill-opacity="0.43"/>
<circle cx="73.3" cy="65.8" r="3.2" fill="#0000ff" fill-opacity="0.62"/>
<circle cx="27.6" cy="78.6" r="3.2" fill="#0000ff" fill-opacity="0.43"/>
<circle cx="66.9" cy="103.9" r="3.2" fill="#0000ff" fill-opacity="0.43"/>
<circle cx="57.8" cy="41.0" r="3.2" fill="#0000ff" fill-opacity="0.53"/>
<circle cx="97.0" cy="66.2" r="3.2" fill="#0000ff" fill-opacity="0.48"/>
<circle cx="51.3" cy="79.1" r="3.2" fill="#0000ff" fill-opacity="0.56"/>
<circle cx="90.5" cy="104.3" r="3.2" fill="#0000ff" fill-opacity="0.36"/>
<circle cx="81.5" cy="41.4" r="3.2" fill="#0000ff" fill-opacity="0.50"/>
<circle cx="35.8" cy="54.3" r="3.2" fill="#0000ff" fill-opacity="0.48"/>
<circle cx="75.0" cy="79.5" r="3.2" fill="#0000ff" fill-opacity="0.56"/>
<circle cx="105.2" cy="41.8" r="3.3" fill="#0000ff" fill-opacity="0.35"/>
<circle cx="29.3" cy="92.4" r="3.3" fill="#0000ff" fill-opacity="0.36"/>
<circle cx="59.5" cy="54.7" r="3.3" fill="#0000ff" fill-opacity="0.57"/>
<circle cx="98.7" cy="79.9" r="3.3" fill="#0000ff" fill-opacity="0.43"/>
<circle cx="53.0" cy="92.8" r="3.3" fill="#0000ff" fill-opacity="0.47"/>
<circle cx="43.9" cy="29.9" r="3.3" fill="#0000ff" fill-opacity="0.39"/>
<circle cx="83.2" cy="55.1" r="3.3" fill="#0000ff" fill-opacity="0.52"/>
<circle cx="37.4" cy="68.0" r="3.3" fill="#0000ff" fill-opacity="0.48"/>
<circle cx="76.7" cy="93.2" r="3.3" fill="#0000ff" fill-opacity="0.46"/>
<circle cx="67.6" cy="30.3" r="3.3" fill="#0000ff" fill-opacity="0.43"/>
<circle cx="106.8" cy="55.5" r="3.3" fill="#0000ff" fill-opacity="0.36"/>
<circle cx="61.1" cy="68.4" r="3.3" fill="#0000ff" fill-opacity="0.56"/>
<circle cx="91.3" cy="30.7" r="3.3" fill="#0000ff" fill-opacity="0.35"/>
<circle cx="54.6" cy="106.5" r="3.3" fill="#0000ff" fill-opacity="0.35"/>
<circle cx="45.6" cy="43.6" r="3.3" fill="#0000ff" fill-opacity="0.45"/>
<circle cx="84.8" cy="68.8" r="3.3" fill="#0000ff" fill-opacity="0.50"/>
<circle cx="39.1" cy="81.7" r="3.3" fill="#0000ff" fill-opacity="0.43"/>
<circle cx="69.3" cy="44.0" r="3.3" fill="#0000ff" fill-opacity="0.48"/>
<circle cx="62.8" cy="82.1" r="3.3" fill="#0000ff" fill-opacity="0.50"/>
<circle cx="93.0" cy="44.5" r="3.3" fill="#0000ff" fill-opacity="0.39"/>
<circle cx="47.2" cy="57.3" r="3.3" fill="#0000ff" fill-opacity="0.48"/>
<circle cx="86.5" cy="82.6" r="3.3" fill="#0000ff" fill-opacity="0.43"/>
<circle cx="40.8" cy="95.4" r="3.3" fill="#0000ff" fill-opacity="0.35"/>
<circle cx="70.9" cy="57.8" r="3.3" fill="#0000ff" fill-opacity="0.50"/>
<circle cx="64.5" cy="95.9" r="3.4" fill="#0000ff" fill-opacity="0.40"/>
<circle cx="55.4" cy="32.9" r="3.4" fill="#0000ff" fill-opacity="0.38"/>
<circle cx="94.6" cy="58.2" r="3.4" fill="#0000ff" fill-opacity="0.40"/>
<circle cx="48.9" cy="71.1" r="3.4" fill="#0000ff" fill-opacity="0.46"/>
<circle cx="79.1" cy="33.4" r="3.4" fill="#0000ff" fill-opacity="0.36"/>
<circle cx="72.6" cy="71.5" r="3.4" fill="#0000ff" fill-opacity="0.47"/>
<circle cx="57.1" cy="46.7" r="3.4" fill="#0000ff" fill-opacity="0.43"/>
<circle cx="96.3" cy="71.9" r="3.4" fill="#0000ff" fill-opacity="0.36"/>
<circle cx="50.6" cy="84.8" r="3.4" fill="#0000ff" fill-opacity="0.40"/>
<circle cx="80.8" cy="47.1" r="3.4" fill="#0000ff" fill-opacity="0.40"/>
<circle cx="35.0" cy="60.0" r="3.4" fill="#0000ff" fill-opacity="0.36"/>
<circle cx="74.3" cy="85.2" r="3.4" fill="#0000ff" fill-opacity="0.40"/>
<circle cx="58.7" cy="60.4" r="3.4" fill="#0000ff" fill-opacity="0.43"/>
<circle cx="82.4" cy="60.8" r="3.4" fill="#0000ff" fill-opacity="0.39"/>
<circle cx="60.4" cy="74.1" r="3.4" fill="#0000ff" fill-opacity="0.40"/>
<circle cx="84.1" cy="74.6" r="3.5" fill="#0000ff" fill-opacity="0.35"/>
<circle cx="68.5" cy="49.7" r="3.5" fill="#0000ff" fill-opacity="0.36"/>
<circle cx="70.2" cy="63.5" r="3.5" fill="#0000ff" fill-opacity="0.35"/>
</svg>