<svg xmlns="http://www.w3.org/2000/svg" viewBox="0 0 100 100" width="512" height="512" role="img" aria-label="PaperForge">
  <title>PaperForge</title>
  <path fill="#111111" fill-rule="evenodd" d="
    M 44 17 L 61 17 L 70 26 L 70 47 L 44 47 Z
    M 49.5 24.7 L 56.5 24.7 A 1.3 1.3 0 0 1 56.5 27.3 L 49.5 27.3 A 1.3 1.3 0 0 1 49.5 24.7 Z
    M 49.5 31.7 L 64.5 31.7 A 1.3 1.3 0 0 1 64.5 34.3 L 49.5 34.3 A 1.3 1.3 0 0 1 49.5 31.7 Z
    M 49.5 38.7 L 58.5 38.7 A 1.3 1.3 0 0 1 58.5 41.3 L 49.5 41.3 A 1.3 1.3 0 0 1 49.5 38.7 Z
    M 61.3 38.3 L 64.7 38.3 L 64.7 41.7 L 61.3 41.7 Z"/>
  <path fill="#EA580C" d="M 62 18.6 L 68.4 25 L 62 25 Z"/>
  <path fill="#111111" fill-rule="evenodd" d="
    M 9 54.5 L 25 52 L 91 52 L 91 66 L 25 66 L 9 58.5 Z
    M 78 56 L 84 56 L 84 62 L 78 62 Z"/>
  <path fill="#111111" d="M 43 65 L 63 65 L 72 83 L 34 83 Z"/>
</svg>
